<?xml version="1.0" standalone="no"?>
<!DOCTYPE svg PUBLIC "-//W3C//DTD SVG 20010904//EN"
 "http://www.w3.org/TR/2001/REC-SVG-20010904/DTD/svg10.dtd">
<svg version="1.0" xmlns="http://www.w3.org/2000/svg"
 width="640.000000pt" height="640.000000pt" viewBox="0 0 640.000000 640.000000"
 preserveAspectRatio="xMidYMid meet">
<metadata>
Created by potrace 1.11, written by Peter Selinger 2001-2013
</metadata>
<g transform="translate(0.000000,640.000000) scale(0.100000,-0.100000)"
fill="#000000" stroke="none">
<path d="M2715 5551 c-3 -6 -3 -16 1 -23 4 -6 8 -39 10 -72 7 -217 16 -379 24
-431 4 -33 7 -103 6 -155 l-1 -95 -290 0 c-429 -1 -1048 12 -1230 25 -168 12
-250 14 -857 22 l-378 6 0 -114 c0 -110 1 -115 23 -123 13 -5 29 -16 36 -25
18 -22 64 -20 86 4 48 53 246 68 352 26 41 -16 65 -20 76 -14 9 5 50 20 92 33
63 21 95 25 190 25 102 0 125 -4 207 -31 90 -30 94 -30 143 -16 104 31 156 39
213 32 90 -10 182 -35 244 -66 66 -33 85 -35 136 -13 136 58 288 53 470 -18
51 -20 54 -20 92 -3 64 29 228 25 364 -9 60 -15 119 -34 130 -42 28 -19 41
-18 130 11 61 20 97 25 174 25 111 -1 160 -9 255 -47 61 -24 72 -25 100 -14
90 36 141 43 266 38 114 -5 181 -19 249 -50 18 -9 32 -7 65 10 125 62 331 57
469 -13 51 -26 52 -26 107 -11 73 21 278 30 361 16 36 -6 85 -20 109 -31 41
-20 48 -20 126 -8 97 15 486 8 547 -10 63 -18 94 -52 107 -116 20 -100 15
-181 -14 -231 -25 -41 -28 -43 -73 -43 -45 0 -111 20 -179 55 -32 16 -34 16
-110 -22 -74 -37 -81 -38 -173 -36 -52 1 -115 6 -140 13 -25 6 -62 15 -83 19
-21 5 -44 14 -50 20 -19 19 -45 12 -59 -16 -7 -15 -24 -33 -38 -40 -33 -17
-215 -17 -293 -1 -55 12 -61 16 -74 48 -8 19 -23 53 -34 76 -10 22 -19 45 -19
50 0 14 -78 97 -120 127 -19 14 -70 38 -113 52 -109 38 -205 33 -291 -15 -33
-19 -66 -40 -75 -49 -29 -29 -61 -79 -61 -95 0 -21 -86 -22 -127 -2 -15 8 -62
19 -103 25 -41 6 -116 17 -166 25 -49 8 -155 15 -235 16 -160 2 -448 -16 -493
-31 -16 -5 -42 -9 -58 -9 -16 0 -50 -9 -76 -19 -26 -10 -87 -26 -136 -35 -48
-9 -106 -26 -127 -36 -43 -23 -119 -26 -152 -8 -15 9 -87 13 -232 14 -226 2
-258 4 -292 22 -30 16 -79 15 -132 -4 -82 -28 -356 -10 -426 28 -11 6 -38 15
-60 19 -32 6 -47 3 -81 -17 -71 -42 -170 -57 -323 -50 -75 4 -155 13 -181 22
-39 13 -56 13 -111 3 -35 -7 -110 -13 -166 -13 -111 -1 -122 -6 -140 -61 -14
-41 -5 -93 18 -106 10 -5 78 -9 151 -9 73 1 234 -3 358 -9 124 -6 296 -13 384
-15 87 -3 161 -7 164 -11 3 -3 -17 -29 -46 -58 -49 -50 -102 -146 -102 -187 0
-28 -17 -34 -59 -21 -301 93 -318 97 -471 116 -316 39 -369 45 -432 49 l-68 3
0 -28 0 -29 94 0 c85 0 285 -24 406 -50 25 -5 90 -18 145 -30 55 -11 123 -27
151 -35 28 -8 62 -15 76 -15 32 0 77 -35 63 -48 -5 -5 -46 -22 -90 -37 -80
-27 -280 -126 -365 -181 -25 -15 -63 -37 -84 -48 -22 -11 -67 -45 -100 -76
-34 -31 -83 -73 -109 -93 -27 -20 -80 -72 -118 -116 l-69 -80 0 -1480 c0 -981
3 -1481 10 -1481 6 0 10 4 10 9 0 10 27 17 114 26 56 6 59 6 53 -14 -4 -17 -1
-21 17 -21 12 0 27 5 34 12 9 9 18 9 37 0 31 -14 2165 -17 2165 -3 0 4 -8 19
-19 32 -10 13 -28 44 -41 68 -26 51 -24 110 6 177 22 47 82 114 104 114 8 0
26 8 39 17 37 25 119 41 179 33 54 -7 76 -22 146 -99 72 -79 75 -198 6 -314
l-22 -37 125 0 c91 0 127 3 130 13 3 9 9 9 26 -1 11 -6 24 -12 28 -12 5 0 0 5
-9 11 -22 12 -23 42 -3 62 13 13 9 14 -28 10 -23 -3 -47 -12 -53 -19 -6 -8
-20 -14 -30 -14 -11 0 -30 -7 -42 -16 -21 -14 -23 -14 -33 13 -6 15 -8 44 -5
63 30 196 30 430 -1 560 -8 36 -21 92 -28 125 -7 33 -18 75 -23 92 -11 35 1
54 21 34 17 -17 37 -13 37 7 -1 19 -249 278 -345 359 -33 28 -89 69 -125 92
-35 23 -67 46 -70 50 -7 11 -131 91 -141 91 -4 0 -47 24 -96 54 -124 75 -154
89 -278 129 -203 65 -378 97 -533 97 -120 0 -133 -5 -130 -44 1 -19 -7 -43
-20 -61 -12 -17 -31 -66 -43 -110 -18 -67 -21 -96 -15 -174 6 -103 18 -142 78
-270 l39 -85 -23 -70 c-26 -77 -42 -92 -59 -49 -6 15 -24 55 -40 89 -44 90
-139 359 -139 391 0 9 -11 61 -24 117 -35 148 -48 279 -48 471 0 320 21 483
99 765 17 60 152 337 189 385 19 25 36 33 101 48 54 12 96 29 138 57 119 78
202 151 244 214 9 13 29 42 44 65 15 23 34 44 42 47 7 3 16 17 20 32 3 14 15
38 26 53 23 32 25 76 5 114 -16 31 -11 55 12 55 8 0 39 18 67 39 85 64 263
144 395 176 30 7 84 22 120 33 100 30 282 72 313 72 15 0 56 6 90 14 182 42
460 48 663 15 71 -11 156 -25 188 -30 87 -13 132 -25 351 -90 77 -23 160 -53
185 -67 25 -14 82 -46 127 -71 180 -100 265 -156 327 -212 35 -32 67 -59 71
-59 12 0 178 -149 195 -175 8 -12 54 -63 101 -113 47 -49 101 -115 120 -146
19 -31 55 -89 80 -129 102 -161 166 -304 214 -477 14 -52 30 -108 35 -123 5
-15 6 -43 3 -62 -5 -34 -5 -35 28 -35 19 0 57 -12 84 -27 28 -14 73 -37 100
-51 58 -29 168 -102 174 -114 1 -5 11 -17 20 -26 36 -35 109 -171 127 -237 8
-27 14 -94 14 -147 0 -152 -25 -187 -70 -100 -27 51 -132 162 -155 162 -22 0
-48 31 -36 43 6 6 11 17 11 25 0 12 -11 14 -59 9 -32 -4 -72 -12 -87 -18 -16
-7 -42 -17 -59 -24 -16 -7 -41 -16 -55 -20 -29 -9 -270 -146 -306 -174 -177
-139 -416 -391 -508 -536 -32 -49 -75 -110 -96 -135 -66 -79 -170 -290 -170
-343 0 -14 5 -17 21 -12 20 7 21 5 15 -57 -4 -34 -9 -110 -12 -167 -4 -66 -11
-113 -21 -127 -11 -17 -13 -39 -7 -93 7 -74 -3 -105 -32 -94 -9 3 -14 -2 -14
-16 0 -14 8 -23 26 -27 l25 -6 -22 -24 c-12 -13 -28 -24 -36 -24 -7 0 -13 -4
-13 -8 0 -12 68 -34 81 -27 6 4 9 29 8 56 -3 60 8 74 55 65 33 -6 36 -9 30
-32 -10 -38 13 -71 55 -80 56 -12 85 -11 99 3 14 14 7 57 -8 48 -4 -3 -10 2
-14 10 -3 8 -1 17 4 20 6 4 10 1 10 -5 0 -6 4 -8 10 -5 6 3 10 1 10 -4 0 -6 7
-11 15 -11 17 0 20 16 5 25 -5 3 -10 10 -10 14 0 8 84 51 100 51 18 0 10 -25
-18 -53 -59 -60 -69 -73 -75 -90 -6 -16 11 -17 294 -17 l301 1 -2 72 c-3 103
-2 107 19 107 28 0 34 -16 14 -35 -16 -17 -12 -26 22 -39 6 -2 5 -11 -2 -24
-13 -22 -2 -39 17 -27 5 3 23 -8 40 -25 31 -32 70 -35 70 -4 0 11 7 9 33 -6
38 -24 83 -26 91 -5 7 19 30 19 50 0 25 -25 107 -19 151 11 26 17 45 24 62 19
18 -4 26 0 35 19 14 31 -3 56 -38 56 -12 0 -25 4 -28 8 -3 5 -28 10 -57 11
-103 3 -181 19 -218 45 -31 21 -44 24 -93 20 -50 -3 -59 -1 -68 16 -15 28 -3
43 29 36 26 -6 26 -6 -7 24 -18 16 -30 30 -27 30 3 0 1 9 -5 20 -6 11 -17 20
-25 20 -8 0 -15 5 -15 11 0 6 7 9 15 5 8 -3 15 0 15 6 0 6 8 16 17 23 16 12
16 14 -6 32 -27 22 -22 58 9 66 13 3 20 14 20 30 0 31 22 50 52 45 19 -2 23
-9 24 -38 1 -19 -3 -37 -7 -40 -5 -3 5 -14 22 -24 l30 -18 -3 53 c-3 53 -3 53
32 61 52 14 73 14 77 2 2 -5 -15 -18 -37 -28 -29 -13 -40 -23 -40 -39 1 -22 1
-22 15 -3 12 16 18 17 27 8 19 -19 48 -15 48 7 0 21 26 29 92 27 39 -1 42 -3
51 -36 11 -43 16 -48 27 -30 6 10 12 11 18 5 13 -15 -6 -75 -26 -82 -21 -8
-32 -24 -25 -36 2 -4 16 -1 29 8 13 8 24 13 25 10 4 -22 1 -63 -4 -72 -8 -13
36 -51 70 -59 13 -4 29 -1 37 5 10 8 16 8 26 -4 7 -8 17 -15 22 -15 5 0 22 -9
36 -21 19 -14 38 -20 67 -18 22 2 47 -1 55 -6 79 -49 200 -87 200 -62 0 24
-26 50 -55 53 -15 2 -32 7 -37 12 -10 10 0 44 12 37 8 -5 40 37 40 53 0 6 -12
17 -26 27 -20 13 -28 14 -40 5 -11 -10 -16 -8 -23 11 -5 13 -6 28 -4 32 3 5
-3 14 -13 22 -15 10 -16 16 -6 28 11 13 17 13 52 -4 22 -11 40 -24 40 -29 0
-6 9 -10 21 -10 11 0 18 -4 15 -9 -3 -5 1 -14 9 -21 13 -11 15 6 15 141 0 108
-5 169 -15 204 -18 59 -82 193 -101 213 -8 7 -14 19 -14 26 0 8 -21 41 -47 74
-130 164 -126 155 -134 277 -4 61 -14 128 -23 150 -19 50 -20 145 -2 190 20
46 37 202 30 261 -6 44 -18 98 -40 174 -9 29 -73 133 -86 139 -5 1 -20 21 -34
42 -13 21 -32 39 -42 39 -10 0 -33 13 -52 28 -19 16 -71 48 -115 71 -43 24
-88 49 -99 57 -11 8 -28 14 -38 14 -10 0 -18 7 -18 15 0 31 -46 167 -140 410
-28 73 -105 237 -114 243 -6 4 -23 25 -37 47 -85 132 -99 155 -99 163 0 5 -13
18 -30 30 -16 13 -30 27 -30 32 0 8 -40 53 -139 155 -48 50 -154 144 -193 172
-21 14 -38 29 -38 33 0 3 -20 21 -45 40 -52 39 -60 64 -17 56 53 -10 283 -17
742 -22 256 -3 470 -6 475 -6 18 -2 94 52 112 79 16 24 18 60 21 316 5 363 7
356 -125 443 -42 28 -61 34 -100 33 -186 -5 -1454 22 -1683 36 -47 3 -236 8
-420 10 -340 5 -384 7 -615 26 -71 6 -168 14 -215 18 l-84 6 -2 85 c-2 47 -5
139 -9 205 -3 66 -8 160 -11 208 -2 49 -7 93 -10 99 -4 6 -8 36 -11 67 -2 31
-4 71 -6 90 -2 34 -19 51 -32 32z m-838 -1637 c4 -13 -43 -54 -62 -54 -18 0
-65 39 -65 54 0 16 122 16 127 0z m3478 -3056 c45 -11 138 -77 156 -111 7 -12
26 -39 43 -60 40 -51 29 -72 -40 -72 -72 0 -76 -4 -123 -118 -6 -15 -11 -43
-11 -61 0 -18 -8 -43 -19 -54 -16 -19 -29 -22 -89 -22 -39 0 -74 5 -77 10 -3
6 -30 10 -58 10 -91 0 -91 0 -154 129 -46 96 -29 237 38 298 70 63 204 83 334
51z m645 -367 c55 -20 80 -42 80 -72 0 -9 -9 -19 -21 -22 -29 -8 -24 -63 6
-59 43 6 50 10 50 28 1 10 4 24 7 29 4 6 3 17 -3 25 -13 22 -11 50 5 50 7 0
24 -13 37 -28 13 -16 32 -32 43 -35 15 -6 18 -15 13 -46 -2 -21 0 -46 5 -55 7
-12 7 -21 -1 -29 -6 -6 -11 -24 -11 -39 0 -18 -5 -28 -15 -28 -8 0 -15 5 -15
10 0 6 -14 10 -31 10 -30 0 -30 1 -27 43 2 31 -1 42 -12 42 -8 0 -17 -11 -20
-25 -5 -20 -7 -22 -12 -9 -4 10 -23 22 -42 29 -27 9 -36 17 -36 35 0 24 -22
49 -33 38 -4 -3 -7 -16 -7 -27 0 -20 -1 -20 -19 3 -25 33 -28 152 -3 151 4 -1
32 -9 62 -19z m-1196 -143 c10 -9 11 -20 4 -37 -5 -13 -10 -37 -12 -53 -4 -31
-41 -78 -62 -78 -18 0 -23 32 -7 51 8 9 16 38 18 64 5 59 29 81 59 53z m-87
-48 c-4 -35 -35 -81 -43 -62 -9 21 -34 13 -34 -10 -1 -23 -1 -23 -16 -3 -16
21 -16 21 -42 -23 -10 -15 -72 -24 -91 -13 -10 6 -11 21 -6 59 8 59 18 70 66
74 30 3 34 0 37 -22 4 -27 19 -50 33 -50 5 0 6 13 3 30 -5 23 -2 31 12 37 11
4 25 13 32 20 22 21 52 -1 49 -37z m185 20 c6 0 16 7 23 17 8 11 18 14 31 8
30 -12 107 -15 120 -4 8 7 14 7 19 -1 3 -5 -1 -10 -11 -10 -14 0 -16 -7 -11
-40 4 -34 2 -40 -13 -40 -11 0 -21 4 -25 10 -10 17 -35 -1 -35 -26 0 -17 -6
-24 -20 -24 -22 0 -27 19 -9 37 8 8 5 17 -10 32 -29 29 -34 26 -27 -11 9 -51
-1 -58 -62 -44 -63 14 -88 42 -47 52 14 3 34 4 44 1 10 -2 25 -1 32 3 10 7 10
11 0 24 -8 9 -20 16 -27 16 -17 0 -18 17 -1 23 6 2 13 -2 15 -10 2 -7 8 -13
14 -13z m284 19 c7 -12 -43 -58 -63 -59 -21 0 -14 37 10 53 27 19 43 21 53 6z
m222 -98 c-2 -8 -10 -15 -18 -17 -8 -1 -24 -6 -34 -10 -17 -6 -18 -4 -13 17 4
13 7 32 7 41 0 16 2 16 30 0 17 -9 29 -23 28 -31z m12 39 c0 -5 -2 -10 -4 -10
-3 0 -8 5 -11 10 -3 6 -1 10 4 10 6 0 11 -4 11 -10z m860 1 c0 -6 -4 -13 -10
-16 -5 -3 -10 1 -10 9 0 9 5 16 10 16 6 0 10 -4 10 -9z m-2 -53 c17 -17 15
-28 -7 -28 -19 0 -35 23 -24 34 9 9 18 7 31 -6z m-842 -93 c-7 -18 -26 -20
-26 -2 0 18 24 41 28 27 2 -6 1 -17 -2 -25z m239 -19 c33 -3 74 -9 90 -13 17
-4 49 -7 73 -6 36 0 42 -3 42 -19 0 -16 -5 -19 -21 -15 -18 5 -31 1 -68 -20
-2 -2 2 -9 9 -18 11 -13 7 -15 -34 -15 -39 0 -46 3 -46 20 0 16 5 19 30 14 18
-4 30 -2 30 4 0 14 -24 22 -48 15 -13 -3 -27 2 -38 15 -16 20 -18 20 -59 2
-64 -28 -109 -30 -144 -9 -27 16 -29 20 -18 43 14 29 27 35 21 9 -8 -33 8 -43
48 -33 26 8 38 17 42 36 6 23 9 24 19 11 7 -8 37 -17 72 -21z m-985 5 c-5 -11
-15 -23 -20 -26 -6 -3 -10 -15 -10 -26 0 -28 -30 -37 -46 -14 -23 30 -17 54
14 60 15 4 34 10 42 15 25 14 31 11 20 -9z"/>
<path d="M5965 441 c-10 -18 17 -23 33 -7 15 15 15 16 -5 16 -12 0 -24 -4 -28
-9z"/>
<path d="M6150 364 c0 -17 22 -14 28 4 2 7 -3 12 -12 12 -9 0 -16 -7 -16 -16z"/>
<path d="M4521 278 c-8 -22 -3 -68 8 -68 11 0 33 60 27 75 -8 22 -25 18 -35
-7z"/>
<path d="M4399 3410 c-116 -24 -167 -55 -305 -185 -64 -60 -133 -201 -173
-351 -18 -69 -22 -204 -7 -284 12 -73 74 -228 102 -261 8 -8 14 -21 14 -27 0
-12 107 -120 170 -171 43 -35 149 -93 188 -103 13 -4 27 -19 33 -37 6 -17 15
-31 19 -31 4 0 27 33 50 73 55 92 61 99 147 163 155 115 289 157 503 157 69 0
134 -2 145 -4 12 -3 20 2 23 13 2 12 -6 20 -29 25 -49 13 -58 36 -32 81 55 97
55 332 -2 447 -8 17 -21 55 -29 85 -33 121 -183 288 -319 357 -138 69 -326 89
-498 53z m176 -203 c38 -23 75 -53 82 -67 7 -14 13 -52 13 -85 0 -96 -47 -166
-168 -253 -52 -36 -70 -43 -124 -48 -51 -5 -72 -2 -111 16 -101 45 -155 120
-142 193 9 48 126 201 167 219 18 8 58 27 88 41 79 37 112 34 195 -16z m374
-592 c35 -18 73 -62 91 -105 19 -45 4 -102 -30 -111 -14 -4 -52 -14 -85 -22
-66 -17 -138 -41 -171 -58 -35 -18 -56 -7 -82 41 -46 87 -6 200 88 248 52 26
146 30 189 7z"/>
<path d="M2320 3344 c-36 -8 -79 -21 -97 -29 -17 -8 -35 -15 -40 -15 -4 0 -49
-27 -98 -61 -103 -70 -204 -168 -233 -225 -11 -22 -28 -47 -37 -54 -37 -30
-77 -133 -91 -230 -23 -162 -13 -287 33 -408 22 -59 12 -66 -121 -86 -118 -18
-146 -28 -146 -53 0 -12 7 -14 33 -8 147 31 205 37 372 38 177 0 231 -6 401
-46 33 -8 69 -19 80 -25 11 -6 53 -22 93 -36 40 -14 79 -29 85 -34 6 -5 27
-15 46 -23 73 -29 189 -106 287 -191 56 -48 106 -88 112 -88 21 0 11 24 -24
56 -38 34 -46 71 -17 81 68 27 197 145 232 213 11 21 24 42 30 45 17 10 61
105 77 165 25 95 32 142 32 235 -1 200 -37 306 -159 460 -54 67 -173 174 -225
201 -33 17 -69 36 -80 42 -65 35 -115 55 -174 68 -92 22 -289 26 -371 8z m263
-243 c54 -50 82 -122 73 -186 -13 -81 -98 -183 -186 -222 -39 -17 -135 -22
-191 -10 -70 15 -155 111 -174 196 -7 32 -4 37 67 105 109 105 207 152 326
155 36 1 49 -5 85 -38z m434 -672 c101 -63 72 -191 -64 -281 -93 -62 -107 -65
-151 -35 -20 15 -50 43 -66 63 -24 31 -29 45 -29 99 -1 55 3 67 28 96 37 45
61 61 115 76 57 16 123 9 167 -18z"/>
<path d="M3750 2219 c-193 -9 -278 -40 -311 -114 -18 -40 -18 -48 -6 -77 34
-79 114 -113 247 -104 219 15 369 56 417 116 19 23 15 75 -8 104 -51 65 -138
84 -339 75z"/>
<path d="M4170 1910 c0 -5 12 -17 26 -27 77 -53 96 -78 101 -129 5 -50 5 -50
-47 -97 -57 -51 -111 -72 -179 -68 -52 2 -174 41 -221 70 -19 11 -45 21 -56
21 -12 0 -58 -24 -103 -54 -71 -46 -93 -56 -169 -69 -74 -14 -97 -14 -155 -3
-60 11 -72 18 -100 51 -18 21 -35 46 -39 54 -13 32 -8 79 13 105 27 34 20 42
-20 22 -66 -34 -69 -93 -8 -168 60 -75 112 -98 218 -100 46 -1 102 5 124 12
89 29 152 59 184 89 45 43 58 41 161 -18 38 -21 92 -33 177 -38 81 -5 95 -3
125 15 48 30 83 70 106 124 l20 47 -27 58 c-17 34 -43 69 -64 86 -36 27 -67
35 -67 17z"/>
<path d="M5470 509 c0 -5 9 -30 21 -55 14 -32 17 -49 10 -58 -13 -15 4 -36 29
-36 9 0 21 -5 28 -12 13 -13 42 6 42 28 0 8 9 14 20 14 11 0 20 5 20 10 0 7 6
7 19 1 21 -12 31 -5 31 20 0 24 -18 33 -35 19 -8 -6 -23 -9 -33 -5 -14 4 -25
-2 -39 -21 l-20 -27 -21 21 c-12 12 -22 31 -22 42 0 11 -4 20 -10 20 -5 0 -9
3 -8 8 0 4 -2 15 -6 25 -9 19 -26 23 -26 6z"/>
<path d="M5725 480 c-3 -5 -1 -10 4 -10 6 0 11 5 11 10 0 6 -2 10 -4 10 -3 0
-8 -4 -11 -10z"/>
<path d="M5790 475 c0 -17 39 -75 50 -75 13 0 -2 65 -18 78 -21 16 -32 15 -32
-3z"/>
<path d="M3977 404 c-1 -2 -17 -6 -35 -9 -18 -3 -41 -10 -50 -15 -9 -5 -45
-19 -80 -31 -34 -12 -65 -26 -68 -30 -3 -5 -18 -9 -33 -9 -16 0 -54 -11 -85
-25 -31 -14 -62 -25 -70 -25 -7 0 -23 -11 -36 -25 -13 -14 -26 -23 -28 -20 -3
3 -10 1 -16 -4 -6 -4 -41 -14 -78 -21 -62 -11 -101 -32 -81 -43 32 -18 67 -17
88 3 27 25 44 20 67 -21 23 -39 50 -35 59 9 7 33 38 72 58 72 6 0 14 6 18 14
23 39 137 54 172 22 12 -11 21 -15 22 -10 0 5 5 -2 10 -16 8 -20 12 -22 19
-10 18 28 11 49 -17 52 -37 4 -40 24 -4 36 16 6 31 8 34 6 2 -3 19 -6 37 -9
42 -5 50 -14 53 -59 3 -37 -13 -63 -32 -52 -5 4 -14 -1 -19 -10 -6 -10 -16
-15 -26 -11 -11 5 -16 1 -16 -13 0 -11 5 -20 11 -20 6 0 8 -9 4 -20 -10 -31 7
-24 38 15 25 32 30 34 43 20 28 -28 50 -8 32 29 -7 12 -6 27 1 42 8 19 8 24
-4 24 -20 0 -19 16 1 24 22 9 24 6 34 -51 4 -29 8 -37 9 -21 1 20 7 29 24 33
13 4 27 5 33 3 5 -1 19 3 32 10 34 19 81 -10 82 -50 0 -11 -8 -18 -20 -18 -10
0 -25 -6 -32 -14 -9 -10 -20 -11 -36 -5 -29 11 -42 4 -42 -22 0 -27 -18 -24
-32 6 -13 29 -28 24 -28 -10 0 -24 -21 -38 -44 -29 -9 3 -19 -9 -30 -35 -15
-39 -46 -57 -46 -27 0 20 -46 29 -70 14 -11 -7 -20 -21 -20 -31 0 -16 10 -18
120 -16 111 2 122 4 146 25 29 28 42 30 50 9 4 -10 20 -15 45 -15 24 0 39 -5
39 -12 0 -9 3 -9 12 0 7 7 22 12 35 12 24 0 27 9 23 63 -1 22 3 27 20 27 27 0
22 21 -7 35 -12 5 -33 34 -46 65 -14 30 -34 66 -45 80 -17 22 -23 23 -46 12
-22 -10 -26 -9 -26 3 0 32 -19 13 -25 -25 -6 -34 -9 -39 -21 -29 -8 6 -14 8
-14 3 0 -5 -6 0 -12 10 -8 15 -7 22 6 31 22 16 20 31 -3 31 -10 0 -17 -5 -14
-12 6 -16 -29 -27 -39 -12 -4 7 -8 18 -8 25 0 6 -3 18 -6 27 -5 12 1 16 23 16
16 0 34 -5 41 -12 9 -9 12 -9 12 0 0 7 5 12 10 12 6 0 10 -6 10 -14 0 -9 7
-12 19 -9 19 5 20 5 1 25 -16 17 -93 41 -103 32z m-67 -68 c0 -8 -4 -18 -10
-21 -5 -3 -10 3 -10 14 0 12 5 21 10 21 6 0 10 -6 10 -14z m-400 -172 c0 -26
-17 -33 -26 -9 -8 20 3 48 16 40 5 -3 10 -17 10 -31z m640 -85 c0 -24 -23 -21
-28 4 -2 10 3 17 12 17 10 0 16 -9 16 -21z m65 11 c8 -13 -13 -50 -29 -50 -19
0 -29 30 -15 46 13 16 35 18 44 4z"/>
<path d="M5720 385 c-8 -9 -24 -13 -45 -10 -24 3 -38 -2 -50 -15 -14 -16 -15
-20 -4 -24 20 -6 68 -17 109 -23 19 -3 43 -11 53 -18 18 -13 66 -7 67 8 1 37
0 38 -21 27 -29 -16 -52 -5 -44 20 13 40 -38 68 -65 35z"/>
<path d="M3690 221 c0 -5 -16 -11 -36 -14 -34 -6 -94 -54 -94 -76 0 -6 24 -8
55 -6 50 4 55 3 55 -15 0 -11 5 -20 11 -20 23 0 49 22 49 41 0 18 -4 20 -38
14 -28 -4 -42 -2 -50 8 -10 12 -5 16 32 27 58 16 86 7 86 -29 0 -15 -4 -31 -9
-37 -4 -5 -11 -24 -14 -41 -6 -30 -4 -33 18 -33 27 0 33 18 13 39 -11 10 -10
11 4 6 12 -5 20 -1 24 11 3 11 10 27 15 36 6 13 4 20 -11 28 -11 6 -20 17 -20
24 0 8 -7 19 -15 26 -18 15 -75 23 -75 11z"/>
<path d="M6391 214 c0 -11 3 -14 6 -6 3 7 2 16 -1 19 -3 4 -6 -2 -5 -13z"/>
<path d="M3240 135 c-7 -8 -20 -15 -29 -15 -22 0 -52 -36 -45 -55 9 -23 30
-18 52 12 17 23 22 25 36 14 10 -9 14 -22 10 -37 -5 -20 -2 -24 15 -24 12 0
21 5 21 12 0 6 3 8 7 5 7 -8 43 21 43 35 0 4 -6 8 -13 8 -6 0 -18 14 -25 30
-15 33 -51 41 -72 15z"/>
<path d="M3411 121 c-11 -7 -9 -11 9 -21 24 -13 48 0 36 19 -9 13 -26 14 -45
2z"/>
<path d="M4326 97 c20 -26 47 -25 42 2 -2 9 -15 17 -32 19 l-28 4 18 -25z"/>
<path d="M6012 103 c-20 -18 -38 -103 -21 -103 5 0 9 6 9 13 1 22 35 58 51 52
8 -3 20 -19 26 -35 11 -28 14 -30 67 -30 30 0 57 4 61 10 4 6 15 6 32 -1 14
-5 27 -8 28 -7 8 10 26 50 23 53 -18 15 -56 25 -97 25 -28 0 -51 5 -51 10 0
19 -18 10 -23 -11 -6 -20 -29 -23 -28 -4 0 15 -30 45 -44 45 -7 0 -22 -8 -33
-17z m208 -64 c0 -5 -9 -9 -20 -9 -19 0 -27 20 -13 33 7 8 33 -11 33 -24z"/>
<path d="M3456 93 c-10 -11 -7 -48 6 -61 20 -20 58 -15 58 8 0 31 -47 70 -64
53z"/>
<path d="M3592 68 c-20 -20 -13 -38 13 -38 28 0 30 7 11 32 -10 13 -15 15 -24
6z"/>
<path d="M4277 25 l-18 -25 46 0 c33 0 47 5 52 16 14 38 -53 45 -80 9z"/>
<path d="M3400 20 c0 -13 7 -20 20 -20 23 0 26 10 8 28 -18 18 -28 15 -28 -8z"/>
<path d="M4510 15 c0 -8 9 -15 20 -15 24 0 27 15 4 24 -22 9 -24 8 -24 -9z"/>
<path d="M3330 10 c0 -5 5 -10 11 -10 5 0 7 5 4 10 -3 6 -8 10 -11 10 -2 0 -4
-4 -4 -10z"/>
<path d="M3680 10 l-35 -7 43 -2 c27 0 41 3 37 9 -3 6 -7 9 -8 9 -1 -1 -18 -5
-37 -9z"/>
<path d="M128 3 c6 -2 18 -2 25 0 6 3 1 5 -13 5 -14 0 -19 -2 -12 -5z"/>
<path d="M3198 3 c7 -3 16 -2 19 1 4 3 -2 6 -13 5 -11 0 -14 -3 -6 -6z"/>
<path d="M5388 3 c6 -2 18 -2 25 0 6 3 1 5 -13 5 -14 0 -19 -2 -12 -5z"/>
<path d="M6288 3 c7 -3 16 -2 19 1 4 3 -2 6 -13 5 -11 0 -14 -3 -6 -6z"/>
</g>
</svg>
